<?xml version="1.0" encoding="UTF-8" standalone="no"?>
<!DOCTYPE svg PUBLIC "-//W3C//DTD SVG 1.1//EN"
 "http://www.w3.org/Graphics/SVG/1.1/DTD/svg11.dtd">
<!-- Generated by graphviz version 14.1.1 (20251213.1925)
 -->
<!-- Title: InheritanceTree Pages: 1 -->
<svg width="373pt" height="213pt"
 viewBox="0.00 0.00 373.00 213.00" xmlns="http://www.w3.org/2000/svg" xmlns:xlink="http://www.w3.org/1999/xlink">
<g id="graph0" class="graph" transform="scale(1 1) rotate(0) translate(4 208.5)">
<title>InheritanceTree</title>
<polygon fill="white" stroke="none" points="-4,4 -4,-208.5 369,-208.5 369,4 -4,4"/>
<text xml:space="preserve" text-anchor="middle" x="182.5" y="-7.2" font-family="Times New Roman,serif" font-size="14.00">simple_registry &#45; Inheritance Hierarchy</text>
<!-- SIMPLE_REGISTRY -->
<g id="node1" class="node">
<title>SIMPLE_REGISTRY</title>
<path fill="none" stroke="black" d="M124.75,-60.5C124.75,-60.5 12,-60.5 12,-60.5 6,-60.5 0,-54.5 0,-48.5 0,-48.5 0,-36.5 0,-36.5 0,-30.5 6,-24.5 12,-24.5 12,-24.5 124.75,-24.5 124.75,-24.5 130.75,-24.5 136.75,-30.5 136.75,-36.5 136.75,-36.5 136.75,-48.5 136.75,-48.5 136.75,-54.5 130.75,-60.5 124.75,-60.5"/>
<text xml:space="preserve" text-anchor="middle" x="68.38" y="-37.45" font-family="Times New Roman,serif" font-size="14.00">SIMPLE_REGISTRY</text>
</g>
<!-- LIB_TESTS -->
<g id="node2" class="node">
<title>LIB_TESTS</title>
<path fill="none" stroke="black" d="M98.5,-132.5C98.5,-132.5 38.25,-132.5 38.25,-132.5 32.25,-132.5 26.25,-126.5 26.25,-120.5 26.25,-120.5 26.25,-108.5 26.25,-108.5 26.25,-102.5 32.25,-96.5 38.25,-96.5 38.25,-96.5 98.5,-96.5 98.5,-96.5 104.5,-96.5 110.5,-102.5 110.5,-108.5 110.5,-108.5 110.5,-120.5 110.5,-120.5 110.5,-126.5 104.5,-132.5 98.5,-132.5"/>
<text xml:space="preserve" text-anchor="middle" x="68.38" y="-109.45" font-family="Times New Roman,serif" font-size="14.00">LIB_TESTS</text>
</g>
<!-- TEST_SET_BASE -->
<g id="node3" class="node">
<title>TEST_SET_BASE</title>
<path fill="none" stroke="black" d="M353,-132.5C353,-132.5 256.75,-132.5 256.75,-132.5 250.75,-132.5 244.75,-126.5 244.75,-120.5 244.75,-120.5 244.75,-108.5 244.75,-108.5 244.75,-102.5 250.75,-96.5 256.75,-96.5 256.75,-96.5 353,-96.5 353,-96.5 359,-96.5 365,-102.5 365,-108.5 365,-108.5 365,-120.5 365,-120.5 365,-126.5 359,-132.5 353,-132.5"/>
<text xml:space="preserve" text-anchor="middle" x="304.88" y="-109.45" font-family="Times New Roman,serif" font-size="14.00">TEST_SET_BASE</text>
</g>
<!-- LIB_TESTS&#45;&gt;TEST_SET_BASE -->
<g id="edge1" class="edge">
<title>LIB_TESTS&#45;&gt;TEST_SET_BASE</title>
<path fill="none" stroke="black" d="M110.93,-114.5C110.93,-114.5 232.92,-114.5 232.92,-114.5"/>
<polygon fill="none" stroke="black" points="232.92,-118 242.92,-114.5 232.92,-111 232.92,-118"/>
</g>
<!-- TEST_APP -->
<g id="node4" class="node">
<title>TEST_APP</title>
<path fill="none" stroke="black" d="M96.25,-204.5C96.25,-204.5 40.5,-204.5 40.5,-204.5 34.5,-204.5 28.5,-198.5 28.5,-192.5 28.5,-192.5 28.5,-180.5 28.5,-180.5 28.5,-174.5 34.5,-168.5 40.5,-168.5 40.5,-168.5 96.25,-168.5 96.25,-168.5 102.25,-168.5 108.25,-174.5 108.25,-180.5 108.25,-180.5 108.25,-192.5 108.25,-192.5 108.25,-198.5 102.25,-204.5 96.25,-204.5"/>
<text xml:space="preserve" text-anchor="middle" x="68.38" y="-181.45" font-family="Times New Roman,serif" font-size="14.00">TEST_APP</text>
</g>
</g>
</svg>
