<?xml version="1.0" encoding="UTF-8" standalone="no"?>
<!DOCTYPE svg PUBLIC "-//W3C//DTD SVG 1.1//EN"
 "http://www.w3.org/Graphics/SVG/1.1/DTD/svg11.dtd">
<!-- Generated by graphviz version 14.1.1 (20251213.1925)
 -->
<!-- Title: ContractCoverage Pages: 1 -->
<svg width="816pt" height="645pt"
 viewBox="48.00 48.00 768.00 597.00" xmlns="http://www.w3.org/2000/svg" xmlns:xlink="http://www.w3.org/1999/xlink">
<g id="graph0" class="graph" transform="scale(0.747179 0.747179) rotate(0) translate(68.24 795.49)">
<title>ContractCoverage</title>
<polygon fill="white" stroke="none" points="-4,4 -4,-731.25 959.62,-731.25 959.62,4 -4,4"/>
<text xml:space="preserve" text-anchor="middle" x="477.81" y="-713.75" font-family="Times New Roman,serif" font-size="10.00">simple_registry &#45; Contract Coverage</text>
<g id="clust1" class="cluster">
<title>cluster_SIMPLE_REGISTRY</title>
<polygon fill="white" stroke="black" points="0,-108 0,-637.5 523.38,-637.5 523.38,-108 0,-108"/>
<text xml:space="preserve" text-anchor="middle" x="261.69" y="-620.2" font-family="Times New Roman,serif" font-size="14.00">SIMPLE_REGISTRY</text>
</g>
<g id="clust2" class="cluster">
<title>cluster_LIB_TESTS</title>
<polygon fill="white" stroke="black" points="611.75,0 611.75,-319.5 955.62,-319.5 955.62,0 611.75,0"/>
<text xml:space="preserve" text-anchor="middle" x="783.69" y="-302.2" font-family="Times New Roman,serif" font-size="14.00">LIB_TESTS</text>
</g>
<g id="clust3" class="cluster">
<title>cluster_TEST_APP</title>
<polygon fill="white" stroke="black" points="612.69,-647.5 612.69,-708 676.69,-708 676.69,-647.5 612.69,-647.5"/>
<text xml:space="preserve" text-anchor="middle" x="644.69" y="-690.7" font-family="Times New Roman,serif" font-size="14.00">TEST_APP</text>
</g>
<g id="clust4" class="cluster">
<title>cluster_legend</title>
<polygon fill="lightyellow" stroke="black" points="612.31,-395.62 612.31,-583.88 825.06,-583.88 825.06,-395.62 612.31,-395.62"/>
<text xml:space="preserve" text-anchor="middle" x="718.69" y="-570.38" font-family="Times New Roman,serif" font-size="10.00">Legend</text>
</g>
<!-- SIMPLE_REGISTRY_HKEY_CLASSES_ROOT -->
<g id="node1" class="node">
<title>SIMPLE_REGISTRY_HKEY_CLASSES_ROOT</title>
<polygon fill="lightcoral" stroke="black" points="439.87,-480 315.12,-480 315.12,-444 439.87,-444 439.87,-480"/>
<text xml:space="preserve" text-anchor="middle" x="377.5" y="-458.13" font-family="Times New Roman,serif" font-size="10.00">HKEY_CLASSES_ROOT</text>
</g>
<!-- SIMPLE_REGISTRY_HKEY_CURRENT_USER -->
<g id="node2" class="node">
<title>SIMPLE_REGISTRY_HKEY_CURRENT_USER</title>
<polygon fill="lightcoral" stroke="black" points="351.37,-312 223.62,-312 223.62,-276 351.37,-276 351.37,-312"/>
<text xml:space="preserve" text-anchor="middle" x="287.5" y="-290.13" font-family="Times New Roman,serif" font-size="10.00">HKEY_CURRENT_USER</text>
</g>
<!-- SIMPLE_REGISTRY_HKEY_LOCAL_MACHINE -->
<g id="node3" class="node">
<title>SIMPLE_REGISTRY_HKEY_LOCAL_MACHINE</title>
<polygon fill="lightcoral" stroke="black" points="395.5,-424 259.5,-424 259.5,-388 395.5,-388 395.5,-424"/>
<text xml:space="preserve" text-anchor="middle" x="327.5" y="-402.12" font-family="Times New Roman,serif" font-size="10.00">HKEY_LOCAL_MACHINE</text>
</g>
<!-- SIMPLE_REGISTRY_HKEY_USERS -->
<g id="node4" class="node">
<title>SIMPLE_REGISTRY_HKEY_USERS</title>
<polygon fill="lightcoral" stroke="black" points="115.75,-200 35.25,-200 35.25,-164 115.75,-164 115.75,-200"/>
<text xml:space="preserve" text-anchor="middle" x="75.5" y="-178.13" font-family="Times New Roman,serif" font-size="10.00">HKEY_USERS</text>
</g>
<!-- SIMPLE_REGISTRY_HKEY_CURRENT_CONFIG -->
<g id="node5" class="node">
<title>SIMPLE_REGISTRY_HKEY_CURRENT_CONFIG</title>
<polygon fill="lightcoral" stroke="black" points="286.37,-368 146.62,-368 146.62,-332 286.37,-332 286.37,-368"/>
<text xml:space="preserve" text-anchor="middle" x="216.5" y="-346.12" font-family="Times New Roman,serif" font-size="10.00">HKEY_CURRENT_CONFIG</text>
</g>
<!-- SIMPLE_REGISTRY_read_string -->
<g id="node6" class="node">
<title>SIMPLE_REGISTRY_read_string</title>
<polygon fill="khaki" stroke="black" points="523.37,-480 461.62,-480 461.62,-444 523.37,-444 523.37,-480"/>
<text xml:space="preserve" text-anchor="middle" x="492.5" y="-458.13" font-family="Times New Roman,serif" font-size="10.00">read_string</text>
</g>
<!-- SIMPLE_REGISTRY_read_integer -->
<g id="node7" class="node">
<title>SIMPLE_REGISTRY_read_integer</title>
<polygon fill="khaki" stroke="black" points="116,-613 49,-613 49,-577 116,-577 116,-613"/>
<text xml:space="preserve" text-anchor="middle" x="82.5" y="-591.12" font-family="Times New Roman,serif" font-size="10.00">read_integer</text>
</g>
<!-- SIMPLE_REGISTRY_write_string -->
<g id="node8" class="node">
<title>SIMPLE_REGISTRY_write_string</title>
<polygon fill="khaki" stroke="black" points="205.25,-613 139.75,-613 139.75,-577 205.25,-577 205.25,-613"/>
<text xml:space="preserve" text-anchor="middle" x="172.5" y="-591.12" font-family="Times New Roman,serif" font-size="10.00">write_string</text>
</g>
<!-- SIMPLE_REGISTRY_write_integer -->
<g id="node9" class="node">
<title>SIMPLE_REGISTRY_write_integer</title>
<polygon fill="khaki" stroke="black" points="511.87,-172 441.12,-172 441.12,-136 511.87,-136 511.87,-172"/>
<text xml:space="preserve" text-anchor="middle" x="476.5" y="-150.13" font-family="Times New Roman,serif" font-size="10.00">write_integer</text>
</g>
<!-- SIMPLE_REGISTRY_delete_value -->
<g id="node10" class="node">
<title>SIMPLE_REGISTRY_delete_value</title>
<polygon fill="khaki" stroke="black" points="201.75,-200 133.25,-200 133.25,-164 201.75,-164 201.75,-200"/>
<text xml:space="preserve" text-anchor="middle" x="167.5" y="-178.13" font-family="Times New Roman,serif" font-size="10.00">delete_value</text>
</g>
<!-- SIMPLE_REGISTRY_delete_key -->
<g id="node11" class="node">
<title>SIMPLE_REGISTRY_delete_key</title>
<polygon fill="khaki" stroke="black" points="61,-501 0,-501 0,-465 61,-465 61,-501"/>
<text xml:space="preserve" text-anchor="middle" x="30.5" y="-479.13" font-family="Times New Roman,serif" font-size="10.00">delete_key</text>
</g>
<!-- SIMPLE_REGISTRY_key_exists -->
<g id="node12" class="node">
<title>SIMPLE_REGISTRY_key_exists</title>
<polygon fill="khaki" stroke="black" points="283.25,-144 223.75,-144 223.75,-108 283.25,-108 283.25,-144"/>
<text xml:space="preserve" text-anchor="middle" x="253.5" y="-122.12" font-family="Times New Roman,serif" font-size="10.00">key_exists</text>
</g>
<!-- SIMPLE_REGISTRY_value_exists -->
<g id="node13" class="node">
<title>SIMPLE_REGISTRY_value_exists</title>
<polygon fill="khaki" stroke="black" points="67,-256 0,-256 0,-220 67,-220 67,-256"/>
<text xml:space="preserve" text-anchor="middle" x="33.5" y="-234.13" font-family="Times New Roman,serif" font-size="10.00">value_exists</text>
</g>
<!-- SIMPLE_REGISTRY_create_key -->
<g id="node14" class="node">
<title>SIMPLE_REGISTRY_create_key</title>
<polygon fill="khaki" stroke="black" points="508.62,-368 448.38,-368 448.38,-332 508.62,-332 508.62,-368"/>
<text xml:space="preserve" text-anchor="middle" x="478.5" y="-346.12" font-family="Times New Roman,serif" font-size="10.00">create_key</text>
</g>
<!-- SIMPLE_REGISTRY_last_operation_succeeded -->
<g id="node15" class="node">
<title>SIMPLE_REGISTRY_last_operation_succeeded</title>
<polygon fill="lightgray" stroke="black" points="429.37,-368 307.62,-368 307.62,-332 429.37,-332 429.37,-368"/>
<text xml:space="preserve" text-anchor="middle" x="368.5" y="-346.12" font-family="Times New Roman,serif" font-size="10.00">last_operation_succeeded</text>
</g>
<!-- SIMPLE_REGISTRY_last_read_succeeded -->
<g id="node16" class="node">
<title>SIMPLE_REGISTRY_last_read_succeeded</title>
<polygon fill="lightgray" stroke="black" points="198.5,-312 98.5,-312 98.5,-276 198.5,-276 198.5,-312"/>
<text xml:space="preserve" text-anchor="middle" x="148.5" y="-290.13" font-family="Times New Roman,serif" font-size="10.00">last_read_succeeded</text>
</g>
<!-- SIMPLE_REGISTRY_last_error -->
<g id="node17" class="node">
<title>SIMPLE_REGISTRY_last_error</title>
<polygon fill="lightgray" stroke="black" points="355.62,-144 301.37,-144 301.37,-108 355.62,-108 355.62,-144"/>
<text xml:space="preserve" text-anchor="middle" x="328.5" y="-122.12" font-family="Times New Roman,serif" font-size="10.00">last_error</text>
</g>
<!-- SIMPLE_REGISTRY_pointer_to_string -->
<g id="node18" class="node">
<title>SIMPLE_REGISTRY_pointer_to_string</title>
<polygon fill="lightcoral" stroke="black" points="311.12,-200 223.87,-200 223.87,-164 311.12,-164 311.12,-200"/>
<text xml:space="preserve" text-anchor="middle" x="267.5" y="-178.13" font-family="Times New Roman,serif" font-size="10.00">pointer_to_string</text>
</g>
<!-- SIMPLE_REGISTRY_c_hkey_classes_root -->
<g id="node19" class="node">
<title>SIMPLE_REGISTRY_c_hkey_classes_root</title>
<polygon fill="lightcoral" stroke="black" points="324.87,-256 224.12,-256 224.12,-220 324.87,-220 324.87,-256"/>
<text xml:space="preserve" text-anchor="middle" x="274.5" y="-234.13" font-family="Times New Roman,serif" font-size="10.00">c_hkey_classes_root</text>
</g>
<!-- SIMPLE_REGISTRY_c_hkey_current_user -->
<g id="node20" class="node">
<title>SIMPLE_REGISTRY_c_hkey_current_user</title>
<polygon fill="lightcoral" stroke="black" points="451.25,-256 349.75,-256 349.75,-220 451.25,-220 451.25,-256"/>
<text xml:space="preserve" text-anchor="middle" x="400.5" y="-234.13" font-family="Times New Roman,serif" font-size="10.00">c_hkey_current_user</text>
</g>
<!-- SIMPLE_REGISTRY_c_hkey_local_machine -->
<g id="node21" class="node">
<title>SIMPLE_REGISTRY_c_hkey_local_machine</title>
<polygon fill="lightcoral" stroke="black" points="300.12,-480 188.87,-480 188.87,-444 300.12,-444 300.12,-480"/>
<text xml:space="preserve" text-anchor="middle" x="244.5" y="-458.13" font-family="Times New Roman,serif" font-size="10.00">c_hkey_local_machine</text>
</g>
<!-- SIMPLE_REGISTRY_c_hkey_users -->
<g id="node22" class="node">
<title>SIMPLE_REGISTRY_c_hkey_users</title>
<polygon fill="lightcoral" stroke="black" points="78.25,-312 6.75,-312 6.75,-276 78.25,-276 78.25,-312"/>
<text xml:space="preserve" text-anchor="middle" x="42.5" y="-290.13" font-family="Times New Roman,serif" font-size="10.00">c_hkey_users</text>
</g>
<!-- SIMPLE_REGISTRY_c_hkey_current_config -->
<g id="node23" class="node">
<title>SIMPLE_REGISTRY_c_hkey_current_config</title>
<polygon fill="lightcoral" stroke="black" points="244.12,-424 132.87,-424 132.87,-388 244.12,-388 244.12,-424"/>
<text xml:space="preserve" text-anchor="middle" x="188.5" y="-402.12" font-family="Times New Roman,serif" font-size="10.00">c_hkey_current_config</text>
</g>
<!-- SIMPLE_REGISTRY_c_sr_read_string -->
<g id="node24" class="node">
<title>SIMPLE_REGISTRY_c_sr_read_string</title>
<polygon fill="lightcoral" stroke="black" points="139.25,-557 55.75,-557 55.75,-521 139.25,-521 139.25,-557"/>
<text xml:space="preserve" text-anchor="middle" x="97.5" y="-535.13" font-family="Times New Roman,serif" font-size="10.00">c_sr_read_string</text>
</g>
<!-- SIMPLE_REGISTRY_c_sr_read_dword -->
<g id="node25" class="node">
<title>SIMPLE_REGISTRY_c_sr_read_dword</title>
<polygon fill="lightcoral" stroke="black" points="499.75,-424 413.25,-424 413.25,-388 499.75,-388 499.75,-424"/>
<text xml:space="preserve" text-anchor="middle" x="456.5" y="-402.12" font-family="Times New Roman,serif" font-size="10.00">c_sr_read_dword</text>
</g>
<!-- SIMPLE_REGISTRY_c_sr_write_string -->
<g id="node26" class="node">
<title>SIMPLE_REGISTRY_c_sr_write_string</title>
<polygon fill="lightcoral" stroke="black" points="423.12,-200 335.88,-200 335.88,-164 423.12,-164 423.12,-200"/>
<text xml:space="preserve" text-anchor="middle" x="379.5" y="-178.13" font-family="Times New Roman,serif" font-size="10.00">c_sr_write_string</text>
</g>
<!-- SIMPLE_REGISTRY_c_sr_write_dword -->
<g id="node27" class="node">
<title>SIMPLE_REGISTRY_c_sr_write_dword</title>
<polygon fill="lightcoral" stroke="black" points="349.62,-536 259.37,-536 259.37,-500 349.62,-500 349.62,-536"/>
<text xml:space="preserve" text-anchor="middle" x="304.5" y="-514.12" font-family="Times New Roman,serif" font-size="10.00">c_sr_write_dword</text>
</g>
<!-- SIMPLE_REGISTRY_c_sr_delete_value -->
<g id="node28" class="node">
<title>SIMPLE_REGISTRY_c_sr_delete_value</title>
<polygon fill="lightcoral" stroke="black" points="461.62,-312 371.37,-312 371.37,-276 461.62,-276 461.62,-312"/>
<text xml:space="preserve" text-anchor="middle" x="416.5" y="-290.13" font-family="Times New Roman,serif" font-size="10.00">c_sr_delete_value</text>
</g>
<!-- SIMPLE_REGISTRY_c_sr_delete_key -->
<g id="node29" class="node">
<title>SIMPLE_REGISTRY_c_sr_delete_key</title>
<polygon fill="lightcoral" stroke="black" points="411.88,-592 329.12,-592 329.12,-556 411.88,-556 411.88,-592"/>
<text xml:space="preserve" text-anchor="middle" x="370.5" y="-570.13" font-family="Times New Roman,serif" font-size="10.00">c_sr_delete_key</text>
</g>
<!-- SIMPLE_REGISTRY_c_sr_key_exists -->
<g id="node30" class="node">
<title>SIMPLE_REGISTRY_c_sr_key_exists</title>
<polygon fill="lightcoral" stroke="black" points="312.12,-592 230.87,-592 230.87,-556 312.12,-556 312.12,-592"/>
<text xml:space="preserve" text-anchor="middle" x="271.5" y="-570.13" font-family="Times New Roman,serif" font-size="10.00">c_sr_key_exists</text>
</g>
<!-- SIMPLE_REGISTRY_c_sr_value_exists -->
<g id="node31" class="node">
<title>SIMPLE_REGISTRY_c_sr_value_exists</title>
<polygon fill="lightcoral" stroke="black" points="242.87,-536 154.12,-536 154.12,-500 242.87,-500 242.87,-536"/>
<text xml:space="preserve" text-anchor="middle" x="198.5" y="-514.12" font-family="Times New Roman,serif" font-size="10.00">c_sr_value_exists</text>
</g>
<!-- SIMPLE_REGISTRY_c_sr_create_key -->
<g id="node32" class="node">
<title>SIMPLE_REGISTRY_c_sr_create_key</title>
<polygon fill="lightcoral" stroke="black" points="509.5,-592 427.5,-592 427.5,-556 509.5,-556 509.5,-592"/>
<text xml:space="preserve" text-anchor="middle" x="468.5" y="-570.13" font-family="Times New Roman,serif" font-size="10.00">c_sr_create_key</text>
</g>
<!-- SIMPLE_REGISTRY_c_sr_free_result -->
<g id="node33" class="node">
<title>SIMPLE_REGISTRY_c_sr_free_result</title>
<polygon fill="lightcoral" stroke="black" points="108.75,-424 28.25,-424 28.25,-388 108.75,-388 108.75,-424"/>
<text xml:space="preserve" text-anchor="middle" x="68.5" y="-402.12" font-family="Times New Roman,serif" font-size="10.00">c_sr_free_result</text>
</g>
<!-- SIMPLE_REGISTRY_c_sr_result_success -->
<g id="node34" class="node">
<title>SIMPLE_REGISTRY_c_sr_result_success</title>
<polygon fill="lightcoral" stroke="black" points="466.25,-536 370.75,-536 370.75,-500 466.25,-500 466.25,-536"/>
<text xml:space="preserve" text-anchor="middle" x="418.5" y="-514.12" font-family="Times New Roman,serif" font-size="10.00">c_sr_result_success</text>
</g>
<!-- SIMPLE_REGISTRY_c_sr_result_string -->
<g id="node35" class="node">
<title>SIMPLE_REGISTRY_c_sr_result_string</title>
<polygon fill="lightcoral" stroke="black" points="165.87,-480 77.12,-480 77.12,-444 165.87,-444 165.87,-480"/>
<text xml:space="preserve" text-anchor="middle" x="121.5" y="-458.13" font-family="Times New Roman,serif" font-size="10.00">c_sr_result_string</text>
</g>
<!-- SIMPLE_REGISTRY_c_sr_result_dword -->
<g id="node36" class="node">
<title>SIMPLE_REGISTRY_c_sr_result_dword</title>
<polygon fill="lightcoral" stroke="black" points="182.37,-256 90.62,-256 90.62,-220 182.37,-220 182.37,-256"/>
<text xml:space="preserve" text-anchor="middle" x="136.5" y="-234.13" font-family="Times New Roman,serif" font-size="10.00">c_sr_result_dword</text>
</g>
<!-- SIMPLE_REGISTRY_c_sr_result_error -->
<g id="node37" class="node">
<title>SIMPLE_REGISTRY_c_sr_result_error</title>
<polygon fill="lightcoral" stroke="black" points="119.62,-368 35.37,-368 35.37,-332 119.62,-332 119.62,-368"/>
<text xml:space="preserve" text-anchor="middle" x="77.5" y="-346.12" font-family="Times New Roman,serif" font-size="10.00">c_sr_result_error</text>
</g>
<!-- LIB_TESTS_on_prepare -->
<g id="node38" class="node">
<title>LIB_TESTS_on_prepare</title>
<polygon fill="lightcoral" stroke="black" points="917.62,-36 855.88,-36 855.88,0 917.62,0 917.62,-36"/>
<text xml:space="preserve" text-anchor="middle" x="886.75" y="-14.12" font-family="Times New Roman,serif" font-size="10.00">on_prepare</text>
</g>
<!-- LIB_TESTS_on_clean -->
<g id="node39" class="node">
<title>LIB_TESTS_on_clean</title>
<polygon fill="lightcoral" stroke="black" points="665.75,-36 611.75,-36 611.75,0 665.75,0 665.75,-36"/>
<text xml:space="preserve" text-anchor="middle" x="638.75" y="-14.12" font-family="Times New Roman,serif" font-size="10.00">on_clean</text>
</g>
<!-- LIB_TESTS_registry -->
<g id="node40" class="node">
<title>LIB_TESTS_registry</title>
<polygon fill="lightgray" stroke="black" points="945.75,-92 891.75,-92 891.75,-56 945.75,-56 945.75,-92"/>
<text xml:space="preserve" text-anchor="middle" x="918.75" y="-70.12" font-family="Times New Roman,serif" font-size="10.00">registry</text>
</g>
<!-- LIB_TESTS_test_subkey -->
<g id="node41" class="node">
<title>LIB_TESTS_test_subkey</title>
<polygon fill="lightgray" stroke="black" points="683.12,-295 618.37,-295 618.37,-259 683.12,-259 683.12,-295"/>
<text xml:space="preserve" text-anchor="middle" x="650.75" y="-273.12" font-family="Times New Roman,serif" font-size="10.00">test_subkey</text>
</g>
<!-- LIB_TESTS_test_hkey_constants_not_null -->
<g id="node42" class="node">
<title>LIB_TESTS_test_hkey_constants_not_null</title>
<polygon fill="lightcoral" stroke="black" points="806.62,-148 666.87,-148 666.87,-112 806.62,-112 806.62,-148"/>
<text xml:space="preserve" text-anchor="middle" x="736.75" y="-126.12" font-family="Times New Roman,serif" font-size="10.00">test_hkey_constants_not_null</text>
</g>
<!-- LIB_TESTS_test_known_key_exists -->
<g id="node43" class="node">
<title>LIB_TESTS_test_known_key_exists</title>
<polygon fill="lightcoral" stroke="black" points="948.12,-260 835.37,-260 835.37,-224 948.12,-224 948.12,-260"/>
<text xml:space="preserve" text-anchor="middle" x="891.75" y="-238.12" font-family="Times New Roman,serif" font-size="10.00">test_known_key_exists</text>
</g>
<!-- LIB_TESTS_test_nonexistent_key -->
<g id="node44" class="node">
<title>LIB_TESTS_test_nonexistent_key</title>
<polygon fill="lightcoral" stroke="black" points="756.62,-204 652.87,-204 652.87,-168 756.62,-168 756.62,-204"/>
<text xml:space="preserve" text-anchor="middle" x="704.75" y="-182.12" font-family="Times New Roman,serif" font-size="10.00">test_nonexistent_key</text>
</g>
<!-- LIB_TESTS_test_create_and_delete_key -->
<g id="node45" class="node">
<title>LIB_TESTS_test_create_and_delete_key</title>
<polygon fill="lightcoral" stroke="black" points="874.75,-92 744.75,-92 744.75,-56 874.75,-56 874.75,-92"/>
<text xml:space="preserve" text-anchor="middle" x="809.75" y="-70.12" font-family="Times New Roman,serif" font-size="10.00">test_create_and_delete_key</text>
</g>
<!-- LIB_TESTS_test_write_and_read_string -->
<g id="node46" class="node">
<title>LIB_TESTS_test_write_and_read_string</title>
<polygon fill="lightcoral" stroke="black" points="955.62,-148 827.87,-148 827.87,-112 955.62,-112 955.62,-148"/>
<text xml:space="preserve" text-anchor="middle" x="891.75" y="-126.12" font-family="Times New Roman,serif" font-size="10.00">test_write_and_read_string</text>
</g>
<!-- LIB_TESTS_test_write_and_read_integer -->
<g id="node47" class="node">
<title>LIB_TESTS_test_write_and_read_integer</title>
<polygon fill="lightcoral" stroke="black" points="912.25,-204 779.25,-204 779.25,-168 912.25,-168 912.25,-204"/>
<text xml:space="preserve" text-anchor="middle" x="845.75" y="-182.12" font-family="Times New Roman,serif" font-size="10.00">test_write_and_read_integer</text>
</g>
<!-- LIB_TESTS_test_value_exists -->
<g id="node48" class="node">
<title>LIB_TESTS_test_value_exists</title>
<polygon fill="lightcoral" stroke="black" points="726,-92 639.5,-92 639.5,-56 726,-56 726,-92"/>
<text xml:space="preserve" text-anchor="middle" x="682.75" y="-70.12" font-family="Times New Roman,serif" font-size="10.00">test_value_exists</text>
</g>
<!-- LIB_TESTS_test_delete_value -->
<g id="node49" class="node">
<title>LIB_TESTS_test_delete_value</title>
<polygon fill="lightcoral" stroke="black" points="832.75,-36 744.75,-36 744.75,0 832.75,0 832.75,-36"/>
<text xml:space="preserve" text-anchor="middle" x="788.75" y="-14.12" font-family="Times New Roman,serif" font-size="10.00">test_delete_value</text>
</g>
<!-- LIB_TESTS_test_read_system_string -->
<g id="node50" class="node">
<title>LIB_TESTS_test_read_system_string</title>
<polygon fill="lightcoral" stroke="black" points="816.87,-260 702.62,-260 702.62,-224 816.87,-224 816.87,-260"/>
<text xml:space="preserve" text-anchor="middle" x="759.75" y="-238.12" font-family="Times New Roman,serif" font-size="10.00">test_read_system_string</text>
</g>
<!-- TEST_APP_make -->
<g id="node51" class="node">
<title>TEST_APP_make</title>
<polygon fill="lightcoral" stroke="black" points="671.69,-683.5 617.69,-683.5 617.69,-647.5 671.69,-647.5 671.69,-683.5"/>
<text xml:space="preserve" text-anchor="middle" x="644.69" y="-661.62" font-family="Times New Roman,serif" font-size="10.00">make</text>
</g>
<!-- legend_full -->
<g id="node52" class="node">
<title>legend_full</title>
<polygon fill="palegreen" stroke="black" points="814.56,-500.63 700.31,-500.63 700.31,-459.63 814.56,-459.63 814.56,-500.63"/>
<text xml:space="preserve" text-anchor="middle" x="757.44" y="-483.33" font-family="Times New Roman,serif" font-size="14.00">Full Contract</text>
<text xml:space="preserve" text-anchor="middle" x="757.44" y="-466.83" font-family="Times New Roman,serif" font-size="14.00">(require + ensure)</text>
</g>
<!-- legend_partial -->
<g id="node53" class="node">
<title>legend_partial</title>
<polygon fill="khaki" stroke="black" points="825.06,-436.62 707.81,-436.62 707.81,-395.62 825.06,-395.62 825.06,-436.62"/>
<text xml:space="preserve" text-anchor="middle" x="766.44" y="-419.32" font-family="Times New Roman,serif" font-size="14.00">Partial Contract</text>
<text xml:space="preserve" text-anchor="middle" x="766.44" y="-402.82" font-family="Times New Roman,serif" font-size="14.00">(require or ensure)</text>
</g>
<!-- legend_none -->
<g id="node54" class="node">
<title>legend_none</title>
<polygon fill="lightcoral" stroke="black" points="806.81,-559.12 724.06,-559.12 724.06,-523.12 806.81,-523.12 806.81,-559.12"/>
<text xml:space="preserve" text-anchor="middle" x="765.44" y="-536.08" font-family="Times New Roman,serif" font-size="14.00">No Contract</text>
</g>
<!-- legend_attr -->
<g id="node55" class="node">
<title>legend_attr</title>
<polygon fill="lightgray" stroke="black" points="700.81,-564.62 636.06,-564.62 636.06,-523.62 700.81,-523.62 700.81,-564.62"/>
<text xml:space="preserve" text-anchor="middle" x="668.44" y="-547.33" font-family="Times New Roman,serif" font-size="14.00">Attribute</text>
<text xml:space="preserve" text-anchor="middle" x="668.44" y="-530.83" font-family="Times New Roman,serif" font-size="14.00">(n/a)</text>
</g>
<!-- legend_stats -->
<g id="node56" class="node">
<title>legend_stats</title>
<polygon fill="white" stroke="black" points="672.56,-502.62 612.31,-502.62 612.31,-395.62 678.56,-395.62 678.56,-496.62 672.56,-502.62"/>
<polyline fill="none" stroke="black" points="672.56,-502.62 672.56,-496.62"/>
<polyline fill="none" stroke="black" points="678.56,-496.62 672.56,-496.62"/>
<text xml:space="preserve" text-anchor="middle" x="645.44" y="-485.32" font-family="Times New Roman,serif" font-size="14.00">Statistics</text>
<text xml:space="preserve" text-anchor="middle" x="645.44" y="-468.82" font-family="Times New Roman,serif" font-size="14.00">Full: 0</text>
<text xml:space="preserve" text-anchor="middle" x="645.44" y="-452.32" font-family="Times New Roman,serif" font-size="14.00">Partial: 9</text>
<text xml:space="preserve" text-anchor="middle" x="645.44" y="-435.82" font-family="Times New Roman,serif" font-size="14.00">None: 37</text>
<text xml:space="preserve" text-anchor="middle" x="645.44" y="-419.32" font-family="Times New Roman,serif" font-size="14.00">Attr: 5</text>
<text xml:space="preserve" text-anchor="middle" x="645.44" y="-402.82" font-family="Times New Roman,serif" font-size="14.00">Total: 51</text>
</g>
</g>
</svg>
