<?xml version="1.0" encoding="UTF-8" standalone="no"?>
<!DOCTYPE svg PUBLIC "-//W3C//DTD SVG 1.1//EN"
 "http://www.w3.org/Graphics/SVG/1.1/DTD/svg11.dtd">
<!-- Generated by graphviz version 14.1.1 (20251213.1925)
 -->
<!-- Title: Dependencies Pages: 1 -->
<svg width="348pt" height="213pt"
 viewBox="0.00 0.00 348.00 213.00" xmlns="http://www.w3.org/2000/svg" xmlns:xlink="http://www.w3.org/1999/xlink">
<g id="graph0" class="graph" transform="scale(1 1) rotate(0) translate(4 208.5)">
<title>Dependencies</title>
<polygon fill="white" stroke="none" points="-4,4 -4,-208.5 344.25,-208.5 344.25,4 -4,4"/>
<text xml:space="preserve" text-anchor="middle" x="170.12" y="-7.2" font-family="Times New Roman,serif" font-size="14.00">simple_registry &#45; Dependencies</text>
<!-- simple_registry -->
<g id="node1" class="node">
<title>simple_registry</title>
<polygon fill="lightblue" stroke="black" points="100.75,-132.5 0,-132.5 0,-96.5 100.75,-96.5 100.75,-132.5"/>
<text xml:space="preserve" text-anchor="middle" x="50.38" y="-109.45" font-family="Times New Roman,serif" font-size="14.00">simple_registry</text>
</g>
<!-- simple_testing -->
<g id="node2" class="node">
<title>simple_testing</title>
<polygon fill="lightblue" stroke="black" points="340.25,-204.5 244.75,-204.5 244.75,-168.5 340.25,-168.5 340.25,-204.5"/>
<text xml:space="preserve" text-anchor="middle" x="292.5" y="-181.45" font-family="Times New Roman,serif" font-size="14.00">simple_testing</text>
</g>
<!-- simple_registry&#45;&gt;simple_testing -->
<g id="edge1" class="edge">
<title>simple_registry&#45;&gt;simple_testing</title>
<path fill="none" stroke="black" stroke-dasharray="5,2" d="M101.02,-120.5C161.69,-120.5 255.25,-120.5 255.25,-120.5 255.25,-120.5 255.25,-156.6 255.25,-156.6"/>
<polygon fill="black" stroke="black" points="251.75,-156.6 255.25,-166.6 258.75,-156.6 251.75,-156.6"/>
</g>
<!-- base -->
<g id="node3" class="node">
<title>base</title>
<polygon fill="lightgray" stroke="black" points="319.5,-132.5 265.5,-132.5 265.5,-96.5 319.5,-96.5 319.5,-132.5"/>
<text xml:space="preserve" text-anchor="middle" x="292.5" y="-109.45" font-family="Times New Roman,serif" font-size="14.00">base</text>
</g>
<!-- simple_registry&#45;&gt;base -->
<g id="edge2" class="edge">
<title>simple_registry&#45;&gt;base</title>
<path fill="none" stroke="black" stroke-dasharray="5,2" d="M101.13,-108.5C101.13,-108.5 253.6,-108.5 253.6,-108.5"/>
<polygon fill="black" stroke="black" points="253.6,-112 263.6,-108.5 253.6,-105 253.6,-112"/>
</g>
<!-- testing -->
<g id="node4" class="node">
<title>testing</title>
<polygon fill="lightgray" stroke="black" points="319.5,-60.5 265.5,-60.5 265.5,-24.5 319.5,-24.5 319.5,-60.5"/>
<text xml:space="preserve" text-anchor="middle" x="292.5" y="-37.45" font-family="Times New Roman,serif" font-size="14.00">testing</text>
</g>
<!-- simple_registry&#45;&gt;testing -->
<g id="edge3" class="edge">
<title>simple_registry&#45;&gt;testing</title>
<path fill="none" stroke="black" stroke-dasharray="5,2" d="M50.25,-96.33C50.25,-75 50.25,-42.5 50.25,-42.5 50.25,-42.5 253.67,-42.5 253.67,-42.5"/>
<polygon fill="black" stroke="black" points="253.67,-46 263.67,-42.5 253.67,-39 253.67,-46"/>
</g>
</g>
</svg>
